<svg width="22" height="22" viewBox="0 0 22 22" fill="none" xmlns="http://www.w3.org/2000/svg">
<rect x="1" y="1" width="20" height="20" rx="10" stroke="#1D2939" stroke-width="1.5"/>
<path d="M7.75852 15.5V6.77273H11.2528C11.8949 6.77273 12.4304 6.8679 12.8594 7.05824C13.2884 7.24858 13.6108 7.51278 13.8267 7.85085C14.0426 8.18608 14.1506 8.57244 14.1506 9.00994C14.1506 9.35085 14.0824 9.65057 13.946 9.90909C13.8097 10.1648 13.6222 10.375 13.3835 10.5398C13.1477 10.7017 12.8778 10.8168 12.5739 10.8849V10.9702C12.9063 10.9844 13.2173 11.0781 13.5071 11.2514C13.7997 11.4247 14.0369 11.6676 14.2188 11.9801C14.4006 12.2898 14.4915 12.6591 14.4915 13.0881C14.4915 13.5511 14.3764 13.9645 14.1463 14.3281C13.919 14.6889 13.5824 14.9744 13.1364 15.1847C12.6903 15.3949 12.1406 15.5 11.4872 15.5H7.75852ZM9.60369 13.9915H11.108C11.6222 13.9915 11.9972 13.8935 12.233 13.6974C12.4688 13.4986 12.5866 13.2344 12.5866 12.9048C12.5866 12.6634 12.5284 12.4503 12.4119 12.2656C12.2955 12.081 12.1293 11.9361 11.9134 11.831C11.7003 11.7259 11.446 11.6733 11.1506 11.6733H9.60369V13.9915ZM9.60369 10.4247H10.9716C11.2244 10.4247 11.4489 10.3807 11.6449 10.2926C11.8438 10.2017 12 10.0739 12.1136 9.90909C12.2301 9.74432 12.2884 9.54688 12.2884 9.31676C12.2884 9.00142 12.1761 8.74716 11.9517 8.55398C11.7301 8.3608 11.4148 8.2642 11.0057 8.2642H9.60369V10.4247Z" fill="#1D2939"/>
</svg>
