<svg width="30" height="30" viewBox="0 0 30 30" fill="none" xmlns="http://www.w3.org/2000/svg">
<rect width="30" height="30" rx="15" fill="white"/>
<path fill-rule="evenodd" clip-rule="evenodd" d="M11.101 16.0506C10.8201 15.7694 10.6624 15.3881 10.6624 14.9906C10.6624 14.5931 10.8201 14.2119 11.101 13.9306L16.757 8.27262C17.0384 7.99136 17.42 7.8334 17.8179 7.8335C18.0149 7.83354 18.2099 7.87239 18.3919 7.94782C18.5739 8.02325 18.7393 8.13379 18.8785 8.27312C19.0178 8.41246 19.1283 8.57785 19.2036 8.75988C19.279 8.9419 19.3177 9.13698 19.3177 9.33398C19.3176 9.53098 19.2788 9.72604 19.2033 9.90802C19.1279 10.09 19.0174 10.2554 18.878 10.3946L14.283 14.9906L18.879 19.5866C19.0224 19.7249 19.1367 19.8904 19.2154 20.0734C19.2941 20.2563 19.3356 20.4531 19.3374 20.6523C19.3392 20.8515 19.3014 21.049 19.226 21.2334C19.1507 21.4178 19.0394 21.5853 18.8986 21.7262C18.7579 21.8671 18.5904 21.9786 18.4061 22.0541C18.2218 22.1296 18.0243 22.1676 17.8251 22.166C17.626 22.1644 17.4291 22.1231 17.2461 22.0445C17.063 21.966 16.8975 21.8518 16.759 21.7086L11.099 16.0506H11.101Z" fill="black"/>
</svg>
