<svg width="30" height="30" viewBox="0 0 30 30" fill="none" xmlns="http://www.w3.org/2000/svg">
<rect width="30" height="30" rx="15" fill="white"/>
<path fill-rule="evenodd" clip-rule="evenodd" d="M15.0072 16.6832L19.2139 20.8899C19.4371 21.1131 19.7399 21.2385 20.0556 21.2385C20.3713 21.2385 20.674 21.1131 20.8972 20.8899C21.1204 20.6667 21.2458 20.3639 21.2458 20.0483C21.2458 19.7326 21.1204 19.4298 20.8972 19.2066L16.689 14.9999L20.8964 10.7932C21.0069 10.6827 21.0945 10.5515 21.1543 10.4071C21.2141 10.2627 21.2448 10.108 21.2448 9.95171C21.2447 9.79543 21.2139 9.6407 21.1541 9.49634C21.0942 9.35197 21.0066 9.22081 20.896 9.11033C20.7855 8.99986 20.6543 8.91223 20.5099 8.85247C20.3655 8.7927 20.2108 8.76195 20.0545 8.76199C19.8982 8.76203 19.7435 8.79284 19.5991 8.85268C19.4548 8.91252 19.3236 9.0002 19.2131 9.11073L15.0072 13.3174L10.8006 9.11073C10.6908 8.99703 10.5596 8.90632 10.4144 8.84389C10.2693 8.78146 10.1132 8.74857 9.95519 8.74712C9.7972 8.74567 9.6405 8.77571 9.49424 8.83547C9.34797 8.89523 9.21508 8.98352 9.1033 9.09519C8.99153 9.20686 8.90311 9.33967 8.84322 9.48587C8.78332 9.63208 8.75314 9.78875 8.75443 9.94674C8.75573 10.1047 8.78848 10.2609 8.85077 10.4061C8.91307 10.5513 9.00365 10.6826 9.11725 10.7925L13.3255 14.9999L9.11804 19.2074C9.00445 19.3172 8.91386 19.4486 8.85157 19.5938C8.78928 19.739 8.75653 19.8951 8.75523 20.0531C8.75393 20.2111 8.78411 20.3678 8.84401 20.514C8.90391 20.6602 8.99232 20.793 9.1041 20.9047C9.21587 21.0163 9.34877 21.1046 9.49503 21.1644C9.64129 21.2241 9.79799 21.2542 9.95598 21.2527C10.114 21.2513 10.2701 21.2184 10.4152 21.156C10.5604 21.0935 10.6916 21.0028 10.8013 20.8891L15.0072 16.6832Z" fill="black"/>
</svg>
