<svg width="360" height="778" viewBox="0 0 360 778" fill="none" xmlns="http://www.w3.org/2000/svg">
<g clip-path="url(#clip0_149_1005)">
<rect width="360" height="778" fill="#EFC14A"/>
<g style="mix-blend-mode:soft-light" opacity="0.4">
<path d="M503.825 405.534C494.852 584.495 342.501 722.297 163.541 713.324C-15.4197 704.35 -153.221 551.999 -144.248 373.038C-135.274 194.077 17.0761 56.2744 196.037 65.2478C374.997 74.2213 512.799 226.572 503.825 405.534ZM-65.98 376.962C-72.7861 512.697 31.731 628.249 167.465 635.055C303.2 641.861 418.751 537.344 425.557 401.609C432.363 265.874 327.846 150.322 192.112 143.516C56.3777 136.71 -59.174 241.228 -65.98 376.962Z" fill="#191454"/>
</g>
<g style="mix-blend-mode:soft-light" opacity="0.4">
<path d="M637.922 411.869C625.241 664.785 409.932 859.533 157.018 846.851C-95.8968 834.17 -290.644 618.861 -277.962 365.945C-265.281 113.029 -49.9723 -81.7195 202.942 -69.0379C455.857 -56.3562 650.604 158.953 637.922 411.869ZM-203.094 369.699C-213.702 581.266 -50.794 761.374 160.772 771.983C372.338 782.591 552.445 619.682 563.054 408.115C573.662 196.548 410.754 16.4394 199.188 5.8311C-12.3776 -4.77723 -192.485 158.132 -203.094 369.699Z" fill="#191454"/>
</g>
<g style="mix-blend-mode:soft-light" opacity="0.4">
<path d="M371.206 398.596C365.906 504.304 275.915 585.701 170.207 580.401C64.4989 575.1 -16.8977 485.11 -11.5973 379.402C-6.29684 273.693 83.6934 192.297 189.402 197.597C295.11 202.898 376.506 292.888 371.206 398.596ZM72.3607 383.611C69.3853 442.951 115.077 493.467 174.417 496.443C233.756 499.418 284.273 453.726 287.248 394.386C290.223 335.047 244.531 284.531 185.192 281.555C125.852 278.58 75.3361 324.272 72.3607 383.611Z" fill="#191454"/>
</g>
</g>
<defs>
<clipPath id="clip0_149_1005">
<rect width="360" height="778" fill="white"/>
</clipPath>
</defs>
</svg>
