<svg width="20" height="20" viewBox="0 0 20 20" fill="none" xmlns="http://www.w3.org/2000/svg">
<g clip-path="url(#clip0_147_1668)">
<rect width="20" height="20" rx="10" fill="white"/>
<g filter="url(#filter0_d_147_1668)">
<path d="M8.34925 15C8.0559 15 7.77806 14.855 7.60003 14.605L5.19051 11.2325C5.11601 11.1284 5.06163 11.0097 5.03046 10.8832C4.99929 10.7568 4.99195 10.6251 5.00886 10.4957C5.02577 10.3662 5.0666 10.2416 5.12901 10.1289C5.19142 10.0162 5.27419 9.91761 5.37259 9.8388C5.47095 9.75967 5.58309 9.70188 5.70258 9.66874C5.82206 9.6356 5.94655 9.62776 6.0689 9.64568C6.19125 9.6636 6.30906 9.70692 6.41558 9.77315C6.52209 9.83939 6.61522 9.92725 6.68963 10.0317L8.27507 12.249L12.2613 5.4684C12.3935 5.24452 12.6041 5.08532 12.8469 5.02573C13.0898 4.96614 13.3451 5.01101 13.5567 5.15051C13.9971 5.44054 14.1326 6.05488 13.8575 6.52207L9.1477 14.53C9.0673 14.6673 8.95648 14.7817 8.82486 14.8634C8.69324 14.945 8.5448 14.9915 8.39241 14.9986C8.37757 15 8.36409 15 8.34925 15Z" fill="url(#paint0_linear_147_1668)"/>
</g>
</g>
<defs>
<filter id="filter0_d_147_1668" x="-7" y="-3" width="33" height="34" filterUnits="userSpaceOnUse" color-interpolation-filters="sRGB">
<feFlood flood-opacity="0" result="BackgroundImageFix"/>
<feColorMatrix in="SourceAlpha" type="matrix" values="0 0 0 0 0 0 0 0 0 0 0 0 0 0 0 0 0 0 127 0" result="hardAlpha"/>
<feOffset dy="4"/>
<feGaussianBlur stdDeviation="6"/>
<feComposite in2="hardAlpha" operator="out"/>
<feColorMatrix type="matrix" values="0 0 0 0 0 0 0 0 0 0 0 0 0 0 0 0 0 0 0.08 0"/>
<feBlend mode="normal" in2="BackgroundImageFix" result="effect1_dropShadow_147_1668"/>
<feBlend mode="normal" in="SourceGraphic" in2="effect1_dropShadow_147_1668" result="shape"/>
</filter>
<linearGradient id="paint0_linear_147_1668" x1="12.6651" y1="-0.998645" x2="4.40878" y2="4.78264" gradientUnits="userSpaceOnUse">
<stop stop-color="#EEC049"/>
<stop offset="1" stop-color="#EF8633"/>
</linearGradient>
<clipPath id="clip0_147_1668">
<rect width="20" height="20" rx="10" fill="white"/>
</clipPath>
</defs>
</svg>
